<?xml version="1.0" standalone="no"?>
<!DOCTYPE svg PUBLIC "-//W3C//DTD SVG 20010904//EN"
 "http://www.w3.org/TR/2001/REC-SVG-20010904/DTD/svg10.dtd">
<svg version="1.0" xmlns="http://www.w3.org/2000/svg"
 width="700.000000pt" height="700.000000pt" viewBox="0 0 700.000000 700.000000"
 preserveAspectRatio="xMidYMid meet">
<metadata>
Created by potrace 1.14, written by Peter Selinger 2001-2017
</metadata>
<g transform="translate(0.000000,700.000000) scale(0.100000,-0.100000)"
fill="#000000" stroke="none">
<path d="M2455 6161 c-50 -22 -96 -67 -121 -118 -19 -37 -19 -103 -19 -2543
l0 -2505 22 -41 c12 -22 36 -54 54 -72 68 -67 -39 -63 1585 -60 l1471 3 49 30
c30 19 60 49 79 79 l30 49 0 2517 0 2517 -30 49 c-19 30 -49 60 -79 79 l-49
30 -1476 2 c-1412 3 -1478 2 -1516 -16z m1650 -1391 c221 -58 448 -230 558
-420 20 -36 24 -38 87 -44 168 -17 270 -65 385 -181 57 -57 90 -100 113 -148
83 -172 83 -366 -1 -536 -35 -73 -145 -196 -201 -226 -32 -17 -34 -22 -41 -84
-11 -100 -52 -246 -96 -340 -145 -310 -417 -539 -746 -628 -89 -25 -115 -27
-288 -27 -178 -1 -196 1 -289 27 -317 88 -575 295 -721 578 -91 177 -126 321
-126 524 0 213 36 353 141 551 34 65 60 127 60 143 0 81 48 242 104 349 134
254 378 427 686 486 63 12 297 -3 375 -24z"/>
<path d="M3770 4489 c-188 -25 -348 -107 -495 -254 -102 -102 -147 -166 -194
-277 -66 -157 -7 -404 143 -594 75 -96 163 -166 281 -224 139 -67 212 -84 365
-83 152 1 241 22 368 88 201 103 345 275 411 490 48 155 39 256 -36 394 -167
310 -521 503 -843 460z"/>
<path d="M4773 4079 c3 -13 9 -49 13 -79 5 -41 21 -78 60 -142 66 -110 106
-207 135 -326 l23 -94 18 24 c11 12 34 52 51 88 29 60 32 73 32 165 0 88 -3
107 -27 157 -50 107 -169 204 -272 224 -37 6 -39 6 -33 -17z"/>
<path d="M1725 5360 c-242 -93 -460 -180 -485 -193 -88 -47 -143 -161 -122
-253 8 -36 1049 -2734 1058 -2743 2 -2 4 752 4 1677 0 925 -3 1682 -7 1682 -5
-1 -206 -77 -448 -170z"/>
</g>
</svg>
